<svg width="70" height="70" viewBox="0 0 70 70" fill="#000" xmlns="http://www.w3.org/2000/svg">
<path d="M19.3333 0H4C1.79086 0 0 1.79086 0 4V19.3333C0 21.5425 1.79087 23.3333 4 23.3333H19.3333C21.5425 23.3333 23.3333 21.5425 23.3333 19.3333V4C23.3333 1.79086 21.5425 0 19.3333 0Z" fill="#000"/>
<path d="M66 0H50.6666C48.4575 0 46.6666 1.79086 46.6666 4V19.3333C46.6666 21.5425 48.4575 23.3333 50.6666 23.3333H66C68.2091 23.3333 70 21.5425 70 19.3333V4C70 1.79086 68.2091 0 66 0Z" fill="#000"/>
<path d="M54.3334 35C56.5426 35 58.3334 36.7909 58.3334 39V66C58.3334 68.2091 56.5426 70 54.3334 70H50.6668C48.4576 70 46.6667 68.2091 46.6667 66V62.3333C46.6667 60.1242 44.8759 58.3333 42.6667 58.3333H27.3334C25.1243 58.3333 23.3334 60.1242 23.3334 62.3333V66C23.3334 68.2091 21.5426 70 19.3334 70H15.6668C13.4576 70 11.6667 68.2091 11.6667 66V39C11.6667 36.7909 13.4576 35 15.6667 35H19.3334C21.5426 35 23.3334 33.2091 23.3334 31V27.3333C23.3334 25.1242 25.1243 23.3333 27.3334 23.3333H42.6667C44.8759 23.3333 46.6667 25.1242 46.6667 27.3333V31C46.6667 33.2091 48.4576 35 50.6667 35H54.3334Z" fill="#000"/>
</svg>
